<svg xmlns="http://www.w3.org/2000/svg" viewBox="0 0 24 24" id="layer"><path fill="#4a4a4a" d="M22.9 12.5c.4-1-.2-2.2-1.2-2.6L20 9.4l1.7-.6c.6-.2 1-.6 1.2-1.2.4-1-.2-2.2-1.2-2.6l-9.1-3.3c-.4-.2-.9-.2-1.3 0L2.1 5c-.6.2-1 .6-1.2 1.2-.4 1 .2 2.2 1.2 2.6l1.7.6-1.7.6c-.6.2-1 .6-1.2 1.2-.4 1 .2 2.2 1.2 2.6l1.8.6-1.8.6c-.6.2-1 .6-1.2 1.2-.4 1 .2 2.2 1.2 2.6l9.1 3.3c.4.2.9.2 1.3 0l9.1-3.3c.6-.2 1-.6 1.2-1.2.4-1-.2-2.2-1.2-2.6l-1.6-.6 1.8-.6c.5-.3.9-.7 1.1-1.3zm-21-6c.1-.3.3-.5.6-.6l9.1-3.3c.2-.1.5-.1.7 0l9.1 3.3c.5.2.8.8.6 1.3-.1.3-.3.5-.6.6l-9.1 3.3c-.2.1-.5.1-.7 0L2.5 7.8c-.5-.2-.8-.8-.6-1.3zm11 10.4 5.5-2 2.9 1c.5.2.8.8.6 1.3-.1.3-.3.5-.6.6l-9.1 3.3c-.2.1-.5.1-.7 0l-9.1-3.3c-.4-.2-.7-.8-.5-1.3.1-.3.3-.5.6-.6 1.7-.6 1.7-.6 2.8-1l.2-.1h.1c.1 0 .1 0 .2.1l5.1 1.8c.1 0 .1 0 .2.1l.3.1c.4.2.9.2 1.3 0l.2-.1v.1zm-.4-.9c-.4.1-.8.1-1.2 0l-.2-.1C8.6 15 6.9 14.4 6 14.1l-3.5-1.3c-.5-.2-.8-.8-.6-1.3.1-.3.3-.5.6-.6l2.8-1 5.9 2.1c.4.2.9.2 1.3 0l5.9-2.1 2.9 1c.5.2.8.8.6 1.3-.1.3-.3.5-.6.6L12.5 16z"></path></svg>